<?xml version="1.0" encoding="UTF-8" standalone="no"?>
<!-- Uploaded to: SVG Repo, www.svgrepo.com, Generator: SVG Repo Mixer Tools -->

<svg
   fill="#000000"
   height="540"
   width="960"
   version="1.1"
   id="Layer_1"
   viewBox="0 0 614.4 345.6"
   xml:space="preserve"
   sodipodi:docname="logo.svg"
   inkscape:version="1.2.2 (b0a8486541, 2022-12-01)"
   xmlns:inkscape="http://www.inkscape.org/namespaces/inkscape"
   xmlns:sodipodi="http://sodipodi.sourceforge.net/DTD/sodipodi-0.dtd"
   xmlns="http://www.w3.org/2000/svg"
   xmlns:svg="http://www.w3.org/2000/svg"><defs
   id="defs5196" /><sodipodi:namedview
   id="namedview5194"
   pagecolor="#ffffff"
   bordercolor="#000000"
   borderopacity="0.25"
   inkscape:showpageshadow="2"
   inkscape:pageopacity="0.0"
   inkscape:pagecheckerboard="0"
   inkscape:deskcolor="#d1d1d1"
   showgrid="false"
   inkscape:zoom="0.295"
   inkscape:cx="325.42373"
   inkscape:cy="401.69492"
   inkscape:window-width="1600"
   inkscape:window-height="830"
   inkscape:window-x="0"
   inkscape:window-y="0"
   inkscape:window-maximized="1"
   inkscape:current-layer="Layer_1" />


<g
   id="g5554"><g
     id="g5542"
     transform="matrix(1,0,0,-1,0,345.6)"><g
       id="g5185"
       style="fill:#333333"
       transform="scale(1.2,0.675)">
	<g
   id="g5183"
   style="fill:#333333">
		<path
   d="m 184.765,86.883 c -27.619,0 -50.087,22.468 -50.087,50.087 0,27.619 22.468,50.087 50.087,50.087 27.619,0 50.087,-22.468 50.087,-50.087 0,-27.619 -22.468,-50.087 -50.087,-50.087 z"
   id="path5181"
   style="fill:#333333" />
	</g>
</g><g
       id="g5191"
       style="fill:#333333"
       transform="scale(1.2,0.675)">
	<g
   id="g5189"
   style="fill:#333333">
		<path
   d="M 461.913,0 H 50.087 C 22.468,0 0,22.468 0,50.087 V 461.913 C 0,489.532 22.468,512 50.087,512 H 461.913 C 489.532,512 512,489.532 512,461.913 V 50.087 C 512,22.468 489.532,0 461.913,0 Z m -16.696,293.609 -88.368,-88.37 c -6.521,-6.52 -17.091,-6.52 -23.613,0 L 228.174,310.304 167.63,255.325 c -6.52,-6.52 -17.089,-6.52 -23.609,0 L 66.783,327 V 83.478 c 0,-9.228 7.467,-16.696 16.696,-16.696 h 345.043 c 9.228,0 16.696,7.467 16.696,16.696 v 210.131 z"
   id="path5187"
   style="fill:#333333" />
	</g>
</g></g><text
     xml:space="preserve"
     style="font-style:italic;font-variant:normal;font-weight:bold;font-stretch:normal;font-size:73.7666px;font-family:sans-serif;-inkscape-font-specification:'sans-serif Bold Italic';text-align:center;letter-spacing:7.68402px;text-anchor:middle;fill:#c8beb7;stroke-width:11.526;stroke-linecap:square;stroke-miterlimit:0;paint-order:markers stroke fill"
     x="171.01292"
     y="86.303307"
     id="text5369"
     transform="scale(1.7787087,0.56220561)"><tspan
       style="font-style:italic;font-variant:normal;font-weight:bold;font-stretch:normal;font-size:73.7666px;font-family:sans-serif;-inkscape-font-specification:'sans-serif Bold Italic';fill:#c8beb7;stroke-width:11.526"
       x="171.01292"
       y="86.303307"
       id="tspan5371"
       sodipodi:role="line">grub</tspan><tspan
       style="font-style:italic;font-variant:normal;font-weight:bold;font-stretch:normal;font-size:73.7666px;font-family:sans-serif;-inkscape-font-specification:'sans-serif Bold Italic';fill:#c8beb7;stroke-width:11.526"
       x="174.85493"
       y="178.51155"
       id="tspan5375"
       sodipodi:role="line">btrfsd</tspan></text></g></svg>
