<?xml version="1.0" encoding="UTF-8" standalone="no"?>
<svg
   version="1.1"
   width="775"
   height="225"
   viewBox="0 0 775 225"
   id="svg6648"
   sodipodi:docname="logo.svg"
   inkscape:version="1.2.2 (b0a8486541, 2022-12-01)"
   xmlns:inkscape="http://www.inkscape.org/namespaces/inkscape"
   xmlns:sodipodi="http://sodipodi.sourceforge.net/DTD/sodipodi-0.dtd"
   xmlns="http://www.w3.org/2000/svg"
   xmlns:svg="http://www.w3.org/2000/svg">
  <defs
     id="defs6652" />
  <sodipodi:namedview
     id="namedview6650"
     pagecolor="#ffffff"
     bordercolor="#000000"
     borderopacity="0.25"
     inkscape:showpageshadow="2"
     inkscape:pageopacity="0.0"
     inkscape:pagecheckerboard="0"
     inkscape:deskcolor="#d1d1d1"
     showgrid="false"
     inkscape:zoom="0.39333333"
     inkscape:cx="444.91525"
     inkscape:cy="301.27119"
     inkscape:window-width="1600"
     inkscape:window-height="830"
     inkscape:window-x="0"
     inkscape:window-y="0"
     inkscape:window-maximized="1"
     inkscape:current-layer="svg6648" />
  <g
     id="g6646"
     transform="matrix(1,0,0,1.0131987,-112.5,-191.45959)">
    <circle
       r="166.66667"
       cx="377.74973"
       cy="399.97192"
       fill="#deaa87"
       transform="matrix(0.59218392,0,0,0.59218392,0,63.143034)"
       id="circle6640" />
    <path
       d="m 379.55431,474.97196 v 0 q -35.06456,0 -53.34507,-18.36855 -18.28052,-18.36854 -18.28052,-56.63145 v 0 q 0,-24.91197 8.45071,-41.60798 8.4507,-16.69601 24.94131,-25.02935 16.46127,-8.36267 40.14085,-8.36267 v 0 q 14.78873,0 26.81925,3.16901 12.05986,3.16901 20.80399,9.62441 8.77347,6.4554 13.52699,16.16784 4.75352,9.71245 4.75352,23.03404 v 0 h -20.48122 q 0,-9.30164 -3.37441,-15.96244 -3.40376,-6.6608 -9.62441,-10.88615 -6.22066,-4.22535 -14.46597,-6.01526 -8.2453,-1.7899 -17.54695,-1.7899 v 0 q -12.67605,0 -22.59389,3.16901 -9.94719,3.16901 -16.69601,9.91784 -6.74883,6.77817 -10.35798,17.34155 -3.57982,10.56338 -3.57982,25.11737 v 0 4.4601 q 0,19.63028 6.01526,31.89554 6.01526,12.23591 17.42958,17.84037 11.41432,5.60446 27.46479,5.60446 v 0 q 16.25587,0 26.81925,-4.54812 10.56338,-4.54812 15.75704,-13.82042 5.16432,-9.30165 5.16432,-23.47418 v 0 -2.52348 H 376.1799 v -17.1068 h 71.39084 v 76.26174 h -15.19953 l -2.11267,-18.36855 q -5.69249,7.39437 -13.527,12.03052 -7.80516,4.63615 -17.22418,6.74882 -9.38967,2.11268 -19.95305,2.11268 z"
       fill="#f4e3d7"
       transform="matrix(0.59218392,0,0,0.59218392,0,63.143034)"
       id="path6642" />
    <path
       d="M 645.50072,472.56029 H 627.74974 V 366.36287 h 14.32978 l 1.62647,17.55468 h 1.40213 q 1.62647,-5.04767 4.43073,-9.59058 2.83231,-4.5429 7.68368,-7.45933 4.85138,-2.94448 11.91812,-2.94448 v 0 q 3.0286,0 5.55244,0.50477 2.52383,0.50477 3.72967,1.1217 v 0 16.34885 h -6.67415 q -6.8424,0 -11.80594,2.32754 -4.9355,2.32754 -8.16041,6.56197 -3.25294,4.23444 -4.76724,10.09535 -1.5143,5.86091 -1.5143,12.50701 v 0 z m 82.19293,2.41166 v 0 q -15.33932,0 -24.64947,-7.85193 -9.28211,-7.87998 -9.28211,-27.48177 v 0 -73.27538 h 17.77903 v 70.86371 q 0,6.67414 1.59843,10.90858 1.62647,4.23444 4.65507,6.6461 3.0286,2.43971 7.17891,3.44925 4.12227,1.00953 8.97364,1.00953 v 0 q 7.68368,0 14.13348,-3.64554 6.44981,-3.6175 10.60012,-10.60011 4.1503,-6.95457 4.1503,-16.23668 v 0 -62.39484 h 17.75099 v 106.19742 h -14.32978 l -1.62648,-15.95626 h -1.40213 q -4.23443,6.47785 -9.59058,10.51599 -5.35614,4.03814 -11.91811,5.94503 -6.56197,1.9069 -14.02131,1.9069 z m 131.04318,0 v 0 q -10.71228,0 -19.18116,-4.31856 -8.49691,-4.34661 -13.93718,-13.23612 v 0 h -1.43017 l -1.79473,15.14302 h -14.13348 v -145.9899 h 17.75098 v 53.11273 h 1.20583 q 3.64554,-5.66461 8.49691,-9.08581 4.85138,-3.4212 10.90859,-5.04768 6.0572,-1.62647 12.8996,-1.62647 v 0 q 12.33876,0 21.62087,5.86091 9.2821,5.86091 14.44195,17.97532 5.1318,12.11442 5.1318,30.90297 v 0 q 0,19.77005 -5.04768,32.19294 -5.04767,12.42288 -14.32978,18.28379 -9.2821,5.83286 -22.60235,5.83286 z m -4.26248,-15.53561 v 0 q 9.08581,0 15.25519,-3.64554 6.16937,-3.6175 9.39428,-12.00225 3.2249,-8.38474 3.2249,-22.09758 v 0 -4.26248 q 0,-13.32025 -3.02861,-21.70499 -3.0286,-8.35671 -9.2821,-12.31072 -6.25351,-3.92596 -16.15256,-3.92596 v 0 q -5.66461,0 -10.71228,1.82277 -5.04767,1.79473 -8.97364,6.2535 -3.95401,4.43074 -6.0572,11.91812 -2.13124,7.45934 -2.13124,18.36792 v 0 3.2249 q 0,12.50701 2.94447,21.00392 2.91644,8.46888 9.28211,12.92765 6.36568,4.43074 16.23668,4.43074 z m 113.4885,-32.5014 h -51.09366 v -17.97532 h 51.09366 z m 72.49015,48.03701 v 0 q -10.7123,0 -19.1811,-4.31856 -8.4969,-4.34661 -13.9372,-13.23612 v 0 h -1.4302 l -1.7947,15.14302 h -14.13349 v -145.9899 h 17.75099 v 53.11273 h 1.2058 q 3.6456,-5.66461 8.4969,-9.08581 4.8514,-3.4212 10.9086,-5.04768 6.0572,-1.62647 12.8996,-1.62647 v 0 q 12.3388,0 21.6209,5.86091 9.2821,5.86091 14.4419,17.97532 5.1318,12.11442 5.1318,30.90297 v 0 q 0,19.77005 -5.0476,32.19294 -5.0477,12.42288 -14.3298,18.28379 -9.2821,5.83286 -22.6024,5.83286 z m -4.2624,-15.53561 v 0 q 9.0858,0 15.2551,-3.64554 6.1694,-3.6175 9.3943,-12.00225 3.2249,-8.38474 3.2249,-22.09758 v 0 -4.26248 q 0,-13.32025 -3.0286,-21.70499 -3.0286,-8.35671 -9.2821,-12.31072 -6.2535,-3.92596 -16.1525,-3.92596 v 0 q -5.6647,0 -10.7123,1.82277 -5.0477,1.79473 -8.9737,6.2535 -3.954,4.43074 -6.0572,11.91812 -2.1312,7.45934 -2.1312,18.36792 v 0 3.2249 q 0,12.50701 2.9445,21.00392 2.9164,8.46888 9.2821,12.92765 6.3656,4.43074 16.2367,4.43074 z m 93.1015,15.53561 v 0 q -8.3007,0 -12.9277,-3.11273 -4.6551,-3.14077 -6.6741,-8.27257 -2.0191,-5.15985 -2.0191,-11.02075 v 0 -71.25631 h -13.7128 v -14.94672 h 14.1334 l 3.2249,-29.69714 h 14.1335 v 29.69714 h 19.9944 v 14.94672 h -19.9944 v 68.64834 q 0,5.04767 1.8228,7.57151 1.7947,2.52384 6.8424,2.52384 v 0 h 11.3292 v 11.69377 q -2.0191,1.00953 -4.8514,1.62647 -2.8323,0.5889 -5.7487,1.09366 -2.9445,0.50477 -5.5524,0.50477 z m 52.8884,-2.41166 h -17.7791 V 366.36287 h 14.3579 l 1.5984,17.55468 h 1.4302 q 1.5984,-5.04767 4.4307,-9.59058 2.8323,-4.5429 7.6837,-7.45933 4.8233,-2.94448 11.89,-2.94448 v 0 q 3.0286,0 5.5525,0.50477 2.5238,0.50477 3.7577,1.1217 v 0 16.34885 h -6.6742 q -6.8704,0 -11.8059,2.32754 -4.9635,2.32754 -8.1884,6.56197 -3.2249,4.23444 -4.7392,10.09535 -1.5143,5.86091 -1.5143,12.50701 v 0 z m 71.2843,0 h -17.779 v -91.2507 h -15.76 v -14.94672 h 15.76 v -16.96579 q 0,-6.2535 1.8227,-11.80594 1.8228,-5.55244 6.8705,-9.08581 5.0477,-3.53337 14.1335,-3.53337 v 0 q 2.8042,0 5.5524,0.30847 2.7201,0.28042 5.244,0.78519 2.5238,0.50477 4.5429,1.1217 v 0 12.73136 h -10.7123 q -5.0477,0 -7.3752,2.52383 -2.2995,2.52384 -2.2995,7.15087 v 0 16.76949 h 20.387 v 14.94672 h -20.387 z m 71.6769,2.41166 v 0 q -10.9085,0 -19.1811,-2.21537 -8.3006,-2.21536 -13.7409,-6.4498 -5.4403,-4.23444 -8.2726,-10.09534 -2.8323,-5.86091 -2.8323,-13.32025 v 0 q 0,-1.00953 0,-1.93494 0,-0.89736 0.1963,-1.5143 v 0 h 17.5828 q -0.2244,0.81323 -0.2244,1.43017 0,0.5889 0,1.20583 v 0 q 0.2244,7.06675 3.7577,11.10488 3.5334,4.03814 9.7869,5.63657 6.2535,1.62647 13.9372,1.62647 v 0 q 6.6461,0 12.3107,-1.7106 5.6366,-1.7106 8.9736,-5.24397 3.3371,-3.53337 3.3371,-9.00168 v 0 q 0,-6.6461 -4.3466,-10.17947 -4.3466,-3.53337 -11.4133,-5.55244 -7.0668,-2.01907 -14.7224,-4.26248 v 0 q -6.4779,-1.79473 -12.9277,-4.03814 -6.4498,-2.21537 -11.6096,-5.44027 -5.1599,-3.2249 -8.2726,-8.38474 -3.1408,-5.1318 -3.1408,-13.01178 v 0 q 0,-7.06674 2.9445,-12.53505 2.9164,-5.44027 8.3567,-9.28211 5.4683,-3.84184 13.2361,-5.74874 7.7678,-1.9069 17.2743,-1.9069 v 0 q 10.0953,0 17.6668,2.21537 7.5715,2.21537 12.6192,6.2535 5.0477,4.03814 7.4594,9.19799 2.4116,5.1318 2.4116,10.9927 v 0 q 0,1.20584 0,2.32754 0,1.09366 -0.1963,1.7106 v 0 h -17.3584 v -2.21537 q 0,-4.03813 -2.1312,-7.7678 -2.1032,-3.75771 -7.263,-6.05721 -5.1318,-2.32754 -14.2177,-2.32754 v 0 q -5.8609,0 -10.0953,0.89737 -4.2625,0.9254 -7.0667,2.8323 -2.8323,1.9069 -4.2625,4.43074 -1.4021,2.52383 -1.4021,5.77678 v 0 q 0,5.24397 3.4212,8.07627 3.4492,2.80427 9.1979,4.62704 5.7488,1.82277 12.4229,4.03813 v 0 q 7.0668,2.01907 14.442,4.15031 7.3471,2.1032 13.5165,5.35614 6.1694,3.2249 9.8991,8.77734 3.7296,5.55244 3.7296,14.63825 v 0 q 0,8.46888 -3.2249,14.72238 -3.2249,6.28155 -9.198,10.31969 -5.945,4.03814 -13.9371,5.94503 -7.9641,1.9069 -17.4426,1.9069 z m 101.963,0 v 0 q -13.1239,0 -22.5182,-5.83286 -9.3943,-5.86091 -14.5541,-18.28379 -5.1318,-12.42289 -5.1318,-32.19294 v 0 q 0,-18.78855 5.244,-30.90297 5.2439,-12.11441 14.526,-17.97532 9.3102,-5.86091 21.6209,-5.86091 v 0 q 7.0667,0 13.1239,1.62647 6.0572,1.62648 10.7965,5.04768 4.7392,3.4212 8.3847,9.08581 v 0 h 1.2058 v -53.11273 h 17.7791 v 145.9899 h -14.3579 l -1.5984,-15.14302 h -1.4302 q -5.4402,8.88951 -14.1335,13.23612 -8.6651,4.31856 -18.9568,4.31856 z m 4.2345,-15.53561 v 0 q 10.0953,0 16.3488,-4.43074 6.2535,-4.45877 9.198,-12.92765 2.9164,-8.49691 2.9164,-21.00392 v 0 -3.2249 q 0,-10.90858 -2.2153,-18.36792 -2.2154,-7.48738 -6.0572,-11.91812 -3.8419,-4.45877 -8.8896,-6.2535 -5.0476,-1.82277 -10.7122,-1.82277 v 0 q -9.871,0 -16.1526,3.92596 -6.2535,3.95401 -9.2821,12.31072 -3.0286,8.38474 -3.0286,21.70499 v 0 4.26248 q 0,13.71284 3.2249,22.09758 3.2529,8.38475 9.3943,12.00225 6.1694,3.64554 15.2552,3.64554 z"
       fill="#deaa87"
       transform="matrix(0.59218392,0,0,0.59218392,0,63.143034)"
       id="path6644" />
  </g>
</svg>
